<?xml version="1.0" encoding="utf-8"?>
<!-- Generator: Adobe Illustrator 21.0.0, SVG Export Plug-In . SVG Version: 6.00 Build 0)  -->
<svg version="1.1" id="图层_1" xmlns="http://www.w3.org/2000/svg" xmlns:xlink="http://www.w3.org/1999/xlink" x="0px" y="0px"
	 viewBox="0 0 99.4 99.6" style="enable-background:new 0 0 99.4 99.6;" xml:space="preserve">
<style type="text/css">
	.st0{clip-path:url(#SVGID_2_);}
	.st1{fill:#FFFFFF;stroke:#6AC2B5;stroke-width:2;stroke-miterlimit:10;}
	.st2{fill:#6AC2B5;}
	.st3{clip-path:url(#SVGID_4_);}
	.st4{fill:#6AC2B5;stroke:#6AC2B5;stroke-width:5;stroke-miterlimit:10;}
</style>
<title>资源 1</title>
<g id="图层_2">
	<g id="图层_1-2">
		<g id="_剪切组_">
			<g>
				<defs>
					<circle id="SVGID_1_" cx="48.5" cy="51" r="47"/>
				</defs>
				<clipPath id="SVGID_2_">
					<use xlink:href="#SVGID_1_"  style="overflow:visible;"/>
				</clipPath>
				<g class="st0">
					<g id="VJAZi2.tif">
						
							<image style="overflow:visible;enable-background:new    ;" width="100" height="100" xlink:href="../../../03运营/00平台运营/用户头像选择/female/026.jpg"  transform="matrix(0.99 0 0 0.99 -1 1.56)">
						</image>
					</g>
				</g>
			</g>
		</g>
		<circle class="st1" cx="49.7" cy="49.7" r="47.7"/>
		<path class="st2" d="M68.1,41.9c0.7,10.2-8.3,18.5-18.5,18.5c-10.2,0-18.4-8.3-18.4-18.5c0-8.6,6-16.1,14.4-18
			c0.1,0,1.3-0.1,1.3-0.1c0,1.3,0,1.3,0.3,1.6c2.1,1.4,6.3,3.8,8.9,2.9c0.8,0.9,1.8,1.7,2.9,2.2c0,2.2,3.2,6.7,6.4,7.3
			c0.4,0.1,0.9,0.1,1.3,0C67.7,38.9,68.2,40.4,68.1,41.9z"/>
		<g>
			<defs>
				<circle id="SVGID_3_" cx="49.7" cy="49.7" r="47.7"/>
			</defs>
			<clipPath id="SVGID_4_">
				<use xlink:href="#SVGID_3_"  style="overflow:visible;"/>
			</clipPath>
			<g class="st3">
				<ellipse class="st4" cx="49.7" cy="92.3" rx="37.2" ry="30.6"/>
			</g>
		</g>
		<ellipse transform="matrix(0.6522 -0.758 0.758 0.6522 2.2659 55.0526)" class="st2" cx="61.1" cy="25.1" rx="4.5" ry="3.1"/>
		<path class="st2" d="M66,23.5c0,0,0.3,5.3-5.7,6.7c0.8,2.7,2.6,5.1,5.1,6.6c0,0,8.8-0.6,8.9-10.4C74.3,26.4,70.4,22.7,66,23.5z"/>
		<path class="st2" d="M56.3,26.9c0,0-0.5-5.3,5.5-6.9c-0.9-2.7-2.8-5-5.3-6.4c0,0-8.7,0.9-8.5,10.7C47.9,24.3,51.9,27.8,56.3,26.9z
			"/>
	</g>
</g>
</svg>
