<?xml version="1.0" encoding="utf-8"?>
<!-- Generator: Adobe Illustrator 21.0.0, SVG Export Plug-In . SVG Version: 6.00 Build 0)  -->
<svg version="1.1" id="图层_1" xmlns="http://www.w3.org/2000/svg" xmlns:xlink="http://www.w3.org/1999/xlink" x="0px" y="0px"
	 viewBox="0 0 98 98" style="enable-background:new 0 0 98 98;" xml:space="preserve">
<style type="text/css">
	.st0{fill:#FFFFFF;stroke:#6AC2B5;stroke-width:2;stroke-miterlimit:10;}
	.st1{fill:#6AC2B5;stroke:#6AC2B5;stroke-width:5;stroke-miterlimit:10;}
	.st2{clip-path:url(#SVGID_2_);}
	.st3{fill:#FFFFFF;}
</style>
<title>资源 2</title>
<g id="图层_2">
	<g id="图层_1-2">
		<circle class="st0" cx="49" cy="49.2" r="47.5"/>
		<circle class="st1" cx="49" cy="36" r="18.4"/>
		<g>
			<defs>
				<circle id="SVGID_1_" cx="49" cy="49.2" r="47.5"/>
			</defs>
			<clipPath id="SVGID_2_">
				<use xlink:href="#SVGID_1_"  style="overflow:visible;"/>
			</clipPath>
			<g class="st2">
				<ellipse class="st1" cx="49" cy="87.5" rx="37" ry="30.5"/>
			</g>
		</g>
		<path class="st3" d="M48.8,65.5c-2.5-0.1-4.5-1.6-4.4-3.4s2.1-3.2,4.6-3.1s4.5,1.6,4.4,3.4S51.3,65.6,48.8,65.5z"/>
		<path class="st3" d="M52.5,66.7c-2.2,1.3-4.8,1.3-7,0c-0.5-0.2-1-0.1-1.3,0.4c-0.1,0.1-0.1,0.2-0.1,0.3c-1,5-2.3,18.4-1.8,22.8
			c0,0.2,0.1,0.4,0.3,0.6c1.1,1.1,6.5,5.7,13.3,0.5c0.2-0.2,0.3-0.4,0.3-0.7c0-2.9,0.1-19-2.4-23.5C53.6,66.5,53,66.4,52.5,66.7
			C52.5,66.6,52.5,66.7,52.5,66.7z"/>
	</g>
</g>
</svg>
